HIERARCHY
ROOT hip
{
	OFFSET 0.000000 0.000000 0.000000 
	CHANNELS 6 Xposition Yposition Zposition Xrotation Zrotation Yrotation
	JOINT abdomen
	{
		OFFSET 0.000000 3.402643 0.000000 
		CHANNELS 3 Xrotation Zrotation Yrotation
		JOINT chest
		{
			OFFSET 0.000000 8.438565 -0.680529 
			CHANNELS 3 Xrotation Zrotation Yrotation
			JOINT neck
			{
				OFFSET 0.000000 10.207942 -0.272212 
				CHANNELS 3 Xrotation Zrotation Yrotation
				JOINT head
				{
					OFFSET 0.000000 3.130431 0.000000 
					CHANNELS 3 Xrotation Zrotation Yrotation
					End Site
					{
						OFFSET 0.000000 3.130435 0.000000 
					}
				}
			}
			JOINT lCollar
			{
				OFFSET 3.470700 6.669187 -0.816635 
				CHANNELS 3 Yrotation Zrotation Xrotation
				JOINT lShldr
				{
					OFFSET 3.198488 0.000000 0.000000 
					CHANNELS 3 Zrotation Yrotation Xrotation
					JOINT lForeArm
					{
						OFFSET 10.139888 0.000000 0.000000 
						CHANNELS 3 Yrotation Zrotation Xrotation
						JOINT lHand
						{
							OFFSET 8.370511 0.000000 0.000000 
							CHANNELS 3 Zrotation Yrotation Xrotation
							End Site
							{
								OFFSET 4.083176 0.000000 0.000000 
							}
						}
					}
				}
			}
			JOINT rCollar
			{
				OFFSET -3.470700 6.669187 -0.816635 
				CHANNELS 3 Yrotation Zrotation Xrotation
				JOINT rShldr
				{
					OFFSET -3.198488 0.000000 0.000000 
					CHANNELS 3 Zrotation Yrotation Xrotation
					JOINT rForeArm
					{
						OFFSET -10.139888 0.000000 0.000000 
						CHANNELS 3 Yrotation Zrotation Xrotation
						JOINT rHand
						{
							OFFSET -8.370511 0.000000 0.000000 
							CHANNELS 3 Zrotation Yrotation Xrotation
							End Site
							{
								OFFSET -4.083176 0.000000 0.000000 
							}
						}
					}
				}
			}
		}
	}
	JOINT lThigh
	{
		OFFSET 5.308129 -1.633274 1.361059 
		CHANNELS 3 Xrotation Zrotation Yrotation
		JOINT lShin
		{
			OFFSET -2.041588 -20.007561 0.000000 
			CHANNELS 3 Xrotation Zrotation Yrotation
			JOINT lFoot
			{
				OFFSET 0.000000 -19.190928 -1.224953 
				CHANNELS 3 Xrotation Yrotation Zrotation
				End Site
				{
					OFFSET 0.000000 -2.449906 4.627600 
				}
			}
		}
	}
	JOINT rThigh
	{
		OFFSET -5.308129 -1.633274 1.361059 
		CHANNELS 3 Xrotation Zrotation Yrotation
		JOINT rShin
		{
			OFFSET 2.041588 -20.007561 0.000000 
			CHANNELS 3 Xrotation Zrotation Yrotation
			JOINT rFoot
			{
				OFFSET 0.000000 -19.190928 -1.224953 
				CHANNELS 3 Xrotation Yrotation Zrotation
				End Site
				{
					OFFSET 0.000000 -2.449906 4.627600 
				}
			}
		}
	}
}
MOTION
Frames: 14
Frame Time: 0.033333
5.688109 40.122360 -13.068144 6.152344 4.990234 -27.207033 0.000000 0.000000 0.000000 2.861328 0.380859 3.105534 55.595703 -6.894531 7.137499 -15.986327 -11.279297 3.884809 3.652344 -7.314454 11.856712 -69.609375 -44.589840 30.666975 -114.492188 0.039063 37.353504 16.865232 1.445312 -6.972655 18.085936 8.476562 11.962892 70.468750 56.503906 48.417973 110.224609 -4.599609 35.175777 -22.021482 8.291017 -9.656794 -33.726509 22.116585 1.296860 33.846325 -3.765971 -1.030489 -5.382893 1.656722 -15.907330 -19.175549 -18.746576 3.621912 42.078156 -1.890553 13.041945 -33.507809 -6.210473 17.075724 
6.511345 40.219009 -13.022260 6.357422 7.187500 -33.535156 0.000000 0.000000 0.000000 2.919922 0.234373 2.675844 54.521484 -7.294921 7.773438 -16.591797 -15.537109 6.598947 2.031250 -5.878907 12.149437 -68.613281 -44.433594 29.612303 -115.859375 0.019531 36.894524 17.861326 1.787109 -7.011718 16.679686 8.212891 12.060548 71.425781 58.339844 49.482422 110.136719 -4.570313 34.648441 -21.660156 8.173828 -9.568923 -32.917789 22.586140 6.056911 35.017006 -3.742072 1.012652 -6.081400 1.735943 -15.942323 -23.907711 -20.024437 8.595705 41.060402 -1.727262 15.932692 -31.690159 -5.981657 17.334005 
7.470385 40.280502 -12.947893 7.080079 9.599608 -40.388996 0.000000 0.000000 0.000000 2.998047 0.078125 1.855468 52.480469 -6.181641 8.709886 -17.431641 -21.093750 10.553126 -2.587891 -3.642578 12.803353 -67.158203 -43.779297 26.894533 -116.298836 -0.039063 36.035160 18.876955 2.207031 -7.030872 13.066406 7.988281 12.186141 73.388672 61.640625 52.186325 110.224609 -4.580079 34.921875 -21.113281 8.173828 -9.461501 -33.277637 23.726807 11.064186 37.102016 -3.757431 2.544254 -6.953868 1.934058 -16.581104 -29.652809 -20.495943 13.146899 39.263660 -1.460001 19.010727 -29.208406 -5.696792 17.719416 
8.454834 40.300056 -12.795108 7.939454 12.324220 -46.911976 0.000000 0.000000 0.000000 3.076172 -0.185547 0.595703 50.634766 -3.261719 9.335938 -19.931639 -26.806641 15.942861 -8.798827 -1.416016 13.750240 -64.462891 -43.437500 22.034300 -115.107430 -0.166016 34.082027 19.638672 2.441406 -7.050364 7.851563 8.203125 12.498608 78.359375 65.517578 58.320309 109.521484 -4.687500 36.240231 -20.888672 7.841796 -9.345703 -34.779472 25.364010 15.843181 40.161461 -3.752400 3.264446 -7.616011 2.120757 -17.464121 -35.459595 -20.378830 16.991898 36.804863 -1.137998 21.577831 -26.539959 -5.518792 18.613947 
9.346012 40.232002 -12.554130 9.091797 15.273438 -52.360710 0.000000 0.000000 0.000000 3.105469 -0.566406 -0.966799 50.478516 2.587891 9.502393 -24.980467 -32.089840 22.709656 -15.888671 1.015625 14.716624 -58.378902 -43.232422 13.323390 -111.640625 -0.283203 32.529346 19.726563 1.777344 -7.187198 2.529297 8.144533 12.850179 82.402344 67.158203 61.551971 109.492188 -4.687500 36.231266 -21.201172 7.324219 -9.295628 -37.489071 27.595943 19.789862 44.050861 -3.761882 2.867321 -8.085906 2.279338 -18.385372 -40.914730 -19.638182 20.730726 34.166187 -0.849223 23.323944 -24.356356 -5.531229 20.037920 
10.075911 40.005089 -12.268340 10.839844 18.027344 -56.481350 0.000000 0.000000 0.000000 3.154297 -0.917969 -2.587891 51.728516 10.253906 10.050566 -30.830080 -36.064449 29.775391 -23.125000 3.740235 16.035156 -47.822262 -40.878906 -0.641157 -104.609375 -0.332031 32.070374 18.984375 0.263672 -7.412115 -1.992188 7.539063 13.378907 83.222656 66.376953 60.087074 111.162109 -4.521484 34.501957 -21.181641 7.441407 -9.326172 -41.196037 30.557976 22.018042 48.419952 -3.763227 1.696841 -9.004994 2.561809 -19.387695 -45.893936 -17.988260 24.384718 32.241039 -0.623557 23.988337 -22.976194 -5.635435 21.471605 
10.641589 39.610733 -11.934402 12.490234 20.068359 -59.430241 0.000000 0.000000 0.000000 3.398438 -1.113281 -3.916028 53.183594 15.986327 10.957031 -34.365234 -37.910156 34.681499 -27.880859 6.171875 17.919920 -37.578125 -36.123047 -14.559416 -93.076172 -0.419922 30.761789 18.603516 -0.615234 -7.539166 -5.263672 7.548828 14.697266 84.433594 63.916016 60.916977 112.607422 -4.521484 35.293739 -20.595701 7.900391 -9.305297 -44.617638 33.415337 22.944492 52.586899 -3.714670 0.644507 -10.909754 2.904167 -19.811659 -49.906147 -16.211876 26.591085 31.878231 -0.592654 23.724472 -22.308220 -5.787875 22.554873 
11.031136 39.143425 -11.525667 12.978516 21.337891 -61.406250 0.000000 0.000000 0.000000 3.818359 -1.337891 -4.755878 54.980469 19.472656 11.503906 -35.878910 -38.916012 37.470703 -29.619139 8.798827 19.871552 -32.412109 -30.996092 -23.749998 -78.515625 -0.517578 28.759768 18.945313 -0.859375 -7.626953 -7.412109 8.671875 16.590322 80.595703 58.710934 58.543507 112.695313 -4.736328 38.506664 -20.859375 8.535156 -9.492187 -46.434341 34.958683 24.261316 56.112621 -3.646977 0.077689 -13.481227 3.194198 -19.083185 -52.820164 -15.517936 27.388821 33.265446 -0.749488 22.851797 -22.201756 -6.004052 23.489517 
11.186474 38.674702 -11.100390 12.578125 21.914064 -61.578384 0.000000 0.000000 0.000000 4.267578 -1.640625 -5.292969 58.134766 22.119143 11.644302 -37.666016 -39.189453 39.394531 -30.566404 10.937499 21.404396 -32.031250 -23.671877 -27.812500 -68.281250 -0.527344 27.802734 18.613281 -1.279297 -7.666234 -10.253906 10.654297 18.396631 69.609375 51.943359 48.945309 112.597656 -4.697266 37.880859 -21.806641 9.121094 -9.794923 -47.322575 34.947975 25.292061 58.998825 -3.587796 -0.739810 -15.687509 3.275807 -17.768137 -54.584427 -16.182493 27.980604 36.140701 -1.060494 21.370214 -23.134584 -6.457099 24.395668 
11.068999 38.161274 -10.777561 12.529297 21.210939 -57.750370 0.000000 0.000000 0.000000 4.628906 -1.552734 -5.625264 61.494141 23.867186 11.376954 -39.023438 -37.421871 39.375004 -31.191404 10.751954 22.273567 -33.427731 -13.066407 -28.185801 -69.228516 -0.546875 27.431677 17.607422 -1.650391 -7.617188 -14.951171 13.925781 19.958588 56.933594 45.966801 37.956238 112.451172 -4.414062 33.515625 -21.308596 8.710938 -9.609375 -49.374054 33.104004 22.251715 61.189548 -3.559890 -2.537504 -17.111006 3.303715 -16.836397 -54.293228 -18.184166 27.683483 40.869526 -1.599780 19.020071 -26.210844 -7.334949 25.004005 
10.646680 37.613888 -10.616371 12.714843 19.208982 -48.359375 0.000000 0.000000 0.000000 4.824219 -0.683594 -5.449335 62.167965 24.472658 10.527343 -37.988277 -33.583984 36.000454 -29.814451 10.263673 22.420135 -36.621094 -4.765625 -28.115234 -78.847656 -0.644531 26.796984 17.001955 -1.962891 -7.588225 -19.492189 17.871094 21.152344 47.031250 33.320313 25.581537 112.089844 -4.414062 33.233173 -19.755859 8.339844 -9.238281 -52.490391 27.842155 14.492475 61.828033 -3.587513 -5.189371 -17.929653 3.098421 -15.612004 -50.621494 -22.480469 24.636374 46.997227 -2.295365 15.266465 -31.282717 -8.667697 25.324015 
9.892947 37.247410 -10.549977 12.470704 17.656248 -33.415005 0.000000 0.000000 0.000000 4.648438 0.634766 -4.638565 59.082031 24.082029 9.003907 -35.068359 -26.835938 29.316408 -25.693357 14.199219 20.983932 -44.384766 -4.550782 -27.100384 -91.572266 -0.712891 26.279421 17.080078 -1.445313 -7.500246 -20.957031 20.507813 20.771486 45.712891 4.208984 5.010485 114.921883 -4.404297 34.854263 -18.603514 10.498047 -9.422048 -54.566681 18.113808 6.382654 59.207542 -3.734438 -8.445704 -17.466928 2.490917 -12.950493 -42.718719 -29.490414 18.103624 52.640335 -2.965617 9.945203 -36.696495 -10.235831 25.832096 
8.887811 37.103329 -10.381460 12.822267 17.363281 -13.395524 0.000000 0.000000 0.000000 3.925781 2.070313 -3.339470 53.896484 25.214842 7.070312 -32.871094 -16.933594 20.732424 -16.083984 21.416016 15.640965 -54.882809 -14.003907 -17.228926 -104.833984 -0.546875 28.681679 17.939455 -0.185547 -7.382844 -18.457031 20.439451 17.643074 55.068359 -23.447266 -24.765625 118.896492 -3.496094 23.242785 -17.802734 11.425781 -9.423827 -55.152294 5.340956 -0.135918 54.029922 -3.951561 -13.081193 -15.121918 1.568014 -9.271956 -29.148472 -37.010151 5.691453 56.332050 -3.453181 4.292185 -40.777302 -11.595931 26.378180 
7.920127 36.962818 -10.141447 13.593750 17.011719 6.230469 0.000000 0.000000 0.000000 3.027344 2.519531 -1.376524 49.765625 26.083982 6.088279 -33.164063 -6.015625 11.053663 -0.195313 20.791016 8.515626 -61.933594 -30.136717 4.306641 -115.351570 -0.253906 32.705082 20.019531 0.439453 -7.490235 -10.957031 17.148438 13.271483 58.193363 -32.490234 -46.333370 118.134758 -2.148438 1.562510 -18.017580 7.021485 -8.671876 -54.344582 -6.093998 -5.521071 49.397831 -4.204249 -18.724524 -11.826914 0.987701 -6.776192 -12.734122 -39.944836 -10.708052 58.290249 -3.662212 0.879136 -42.864578 -12.033538 26.096573 
